<svg viewBox="0 0 1025 1024" version="1.1"
    xmlns="http://www.w3.org/2000/svg" width="200" height="200">
    <path
        d="M511.968 64c-282.336 0-512 215.328-512 480a32 32 0 1 0 64 0c0-21.632 2.304-42.688 5.76-63.424 9.376 1.28 15.392 6.72 27.456 20.48 10.016 11.488 23.68 26.72 44.32 35.616-16 13.952-26.784 30.72-30.4 48.544-6.144 30.752 8.608 62.272 39.52 84.32 4.96 3.52 10.368 6.88 15.808 10.176 9.92 6.048 20.192 12.32 24.544 18.752 7.968 11.84-7.712 28.192-12.704 32.896a267.616 267.616 0 0 1-26.368 20.864c-9.888 7.2-20.128 14.656-29.12 23.104-25.696 24.128-32.512 51.744-18.176 73.792 7.136 11.008 18.304 18.688 29.12 26.112 6.624 4.544 12.896 8.864 17.344 13.376 5.536 5.6 8 12.16 7.136 18.816-1.12 8.544-7.584 16.864-17.664 22.752a16 16 0 0 0 16.16 27.648c18.688-10.976 30.816-27.808 33.248-46.208 2.176-16.576-3.52-32.768-16.096-45.504-6.592-6.688-14.432-12.064-22.016-17.28-8.224-5.632-16.736-11.456-20.416-17.152-7.68-11.84 8.224-28.32 13.28-33.056a277.12 277.12 0 0 1 26.048-20.544 296 296 0 0 0 29.536-23.488c25.632-24.32 32.064-51.968 17.248-73.984-8.256-12.256-21.568-20.384-34.432-28.224-4.8-2.912-9.6-5.824-13.92-8.928-20.352-14.496-30.304-33.92-26.688-51.936 3.808-18.816 22.624-37.44 49.152-48.64 33.376-4.992 52.48-26.784 65.664-41.824 13.92-15.904 19.456-21.056 31.872-21.056 12.384 0 17.92 5.152 31.84 21.056 10.048 11.52 23.712 26.784 44.416 35.68-15.936 13.952-26.72 30.688-30.304 48.48-6.176 30.752 8.576 62.272 39.488 84.32 4.96 3.52 10.368 6.88 15.808 10.176 9.92 6.048 20.192 12.32 24.544 18.752 7.968 11.84-7.712 28.192-12.704 32.896a267.616 267.616 0 0 1-26.368 20.864c-9.888 7.2-20.128 14.656-29.12 23.104-25.696 24.128-32.512 51.744-18.176 73.792 7.136 11.008 18.304 18.688 29.12 26.112 6.624 4.544 12.896 8.864 17.344 13.376 5.568 5.6 8 12.16 7.136 18.816-1.12 8.544-7.584 16.864-17.664 22.752a16 16 0 0 0 16.16 27.648c18.688-10.976 30.816-27.808 33.248-46.208 2.176-16.576-3.52-32.768-16.096-45.504-6.592-6.688-14.432-12.064-22.016-17.28-8.224-5.632-16.736-11.456-20.416-17.152-7.68-11.84 8.224-28.32 13.28-33.056a277.12 277.12 0 0 1 26.048-20.544 296 296 0 0 0 29.536-23.488c25.632-24.32 32.064-51.968 17.248-73.984-8.256-12.256-21.568-20.384-34.432-28.224-4.8-2.912-9.6-5.824-13.92-8.928-20.352-14.496-30.304-33.92-26.688-51.936 3.808-18.816 22.656-37.44 49.184-48.64 33.216-5.088 52.288-26.816 65.408-41.824 13.92-15.904 19.456-21.056 31.872-21.056s17.984 5.152 31.904 21.056c13.216 15.104 32.48 36.992 66.112 41.888 26.496 11.2 45.28 29.76 49.088 48.576 3.616 18.048-6.336 37.44-26.656 51.936-4.352 3.104-9.152 6.016-13.952 8.928-12.864 7.84-26.176 15.968-34.4 28.224-14.848 22.016-8.416 49.664 17.248 74.016 9.056 8.576 19.456 16.16 29.504 23.456 9.536 6.944 18.528 13.504 26.048 20.544 5.056 4.736 20.96 21.184 13.28 33.056-3.68 5.696-12.16 11.52-20.416 17.152-7.584 5.216-15.424 10.592-22.016 17.28-12.576 12.736-18.24 28.928-16.096 45.504 2.432 18.4 14.56 35.2 33.248 46.208a16 16 0 0 0 16.192-27.616c-10.112-5.92-16.576-14.24-17.696-22.784-0.896-6.688 1.6-13.216 7.136-18.88 4.448-4.48 10.72-8.768 17.344-13.312 10.816-7.424 21.984-15.104 29.12-26.112 14.336-22.08 7.52-49.664-18.208-73.792-8.96-8.448-19.2-15.904-29.088-23.104a270.016 270.016 0 0 1-26.336-20.8c-5.024-4.768-20.704-21.12-12.736-32.96 4.352-6.432 14.592-12.704 24.544-18.752 5.44-3.296 10.88-6.656 15.84-10.176 30.88-22.048 45.632-53.568 39.456-84.32-3.584-17.856-14.432-34.688-30.464-48.64 20.48-8.928 34.048-24.096 44.064-35.52 13.92-15.904 19.488-21.056 31.904-21.056 12.48 0 18.048 5.152 32 21.12 14.048 15.936 32.672 37.12 66.112 41.856 26.432 11.2 45.216 29.76 49.024 48.544 3.616 18.048-6.336 37.44-26.656 51.936-4.352 3.104-9.152 6.016-13.952 8.928-12.864 7.84-26.176 15.968-34.4 28.224-14.848 22.016-8.416 49.664 17.248 74.016 9.056 8.576 19.456 16.16 29.504 23.456 9.536 6.944 18.528 13.504 26.048 20.544 5.056 4.736 20.96 21.184 13.28 33.056-3.68 5.696-12.16 11.52-20.416 17.152-7.584 5.216-15.424 10.592-22.016 17.28-12.576 12.736-18.24 28.928-16.096 45.504 2.432 18.4 14.56 35.2 33.248 46.208a16 16 0 0 0 16.192-27.616c-10.112-5.92-16.576-14.24-17.696-22.784-0.896-6.688 1.6-13.216 7.136-18.88 4.448-4.48 10.72-8.768 17.344-13.312 10.816-7.424 21.984-15.104 29.12-26.112 14.336-22.08 7.52-49.664-18.208-73.792-8.96-8.448-19.2-15.904-29.088-23.104a270.016 270.016 0 0 1-26.336-20.8c-5.024-4.768-20.704-21.12-12.736-32.96 4.352-6.432 14.592-12.704 24.544-18.752 5.44-3.296 10.88-6.656 15.84-10.176 30.88-22.048 45.632-53.568 39.456-84.32-3.584-17.792-14.368-34.56-30.304-48.48 20.224-8.704 33.568-23.584 44.128-35.648 11.008-12.544 16.896-18.272 24.96-20.192 3.424 20.64 5.76 41.6 5.76 63.104a32 32 0 1 0 64 0c0-264.672-229.696-480-512-480z m369.152 394.88c-13.952 15.968-19.52 21.12-32 21.12s-18.08-5.152-32.032-21.12c-15.872-18.08-37.632-42.88-80.16-42.88s-65.12 25.856-80.064 42.944c-13.952 15.904-19.52 21.056-31.936 21.056s-17.952-5.152-31.904-21.056C578.08 441.856 555.52 416 512.96 416c-42.496 0-65.088 25.856-80.032 42.944-13.952 15.904-19.52 21.056-31.904 21.056s-17.92-5.152-31.808-21.056C354.24 441.856 331.68 416 289.216 416s-65.152 25.856-80.096 42.944c-13.92 15.904-19.456 21.056-31.872 21.056s-17.952-5.152-31.904-21.056c-12.416-14.208-30.304-34.24-60.352-40.704C142.528 250.176 312.128 128 511.968 128c200 0 369.76 122.4 427.136 290.752-28.32 6.784-45.184 25.536-57.984 40.16z"
        fill="#8a8a8a"></path>
</svg>